<?xml version="1.0" encoding="utf-8"?>
<!-- Generator: Adobe Illustrator 19.2.1, SVG Export Plug-In . SVG Version: 6.00 Build 0)  -->
<svg version="1.1" id="Layer_1" xmlns="http://www.w3.org/2000/svg" xmlns:xlink="http://www.w3.org/1999/xlink" x="0px" y="0px"
	 viewBox="0 0 450 450" style="enable-background:new 0 0 450 450;" xml:space="preserve">
<style type="text/css">
	.st0{fill:#BCDCA5;}
	.st1{fill:#373334;}
</style>
<path class="st0" d="M440.9,450H9c-5,0-9-4-9-9V9c0-5,4-9,9-9h431.9c5,0,9,4,9,9v431.9C450,445.9,445.9,450,440.9,450z"/>
<path class="st1" d="M251.9,434.8h-71.6c-2.1,0-3.8-1.7-3.8-3.8V249.5c0-2.1-1.7-3.8-3.8-3.8h-54.8c-2.1,0-3.8-1.7-3.8-3.8v-67.2
	c0-2.1,1.7-3.8,3.8-3.8h54.7c2.2,0,3.9-1.8,3.8-4c-0.9-18.4-3-95.1,24.1-119.5c30.5-27.3,51.5-34.7,128.1-27.6
	c2,0.2,3.5,1.8,3.5,3.8l0,58.8c0,2.4-2.2,4.2-4.5,3.8c-12.8-2.4-49.1-6.7-61.4,18.3c-9.6,19.7-10.5,50.5-10.4,61.1
	c0,2.1,1.7,3.8,3.7,3.8l64.1,1.5c2.2,0.1,3.9,2,3.7,4.2l-6.8,66.4c-0.2,1.9-1.8,3.4-3.8,3.4h-55.2c-2.1,0-3.8,1.7-3.8,3.8L255.7,431
	C255.7,433.1,254,434.8,251.9,434.8z"/>
</svg>
