<?xml version="1.0" encoding="utf-8"?>
<!-- Generator: Adobe Illustrator 19.2.1, SVG Export Plug-In . SVG Version: 6.00 Build 0)  -->
<svg version="1.1" id="Layer_1" xmlns="http://www.w3.org/2000/svg" xmlns:xlink="http://www.w3.org/1999/xlink" x="0px" y="0px"
	 viewBox="0 0 279 279" style="enable-background:new 0 0 279 279;" xml:space="preserve">
<style type="text/css">
	.st0{fill:#BCDCA5;}
	.st1{fill:#373334;}
</style>
<path class="st0" d="M266.7,279H12.3C5.5,279,0,273.5,0,266.7V12.3C0,5.5,5.5,0,12.3,0h254.4c6.8,0,12.3,5.5,12.3,12.3v254.4
	C279,273.5,273.5,279,266.7,279z"/>
<g>
	<path class="st1" d="M255.7,230.4H211c-1,0-1.7-0.8-1.7-1.7l0-3.8c0-24,0.1-48-0.1-72c0-5.1-0.6-10.4-1.9-15.3
		c-4.6-17.4-24.4-23.6-38.5-12.1c-6.8,5.6-10.4,12.7-10.4,21.7c0.1,25.7,0,51.3,0,77c0,1.3,0,2.6,0,4.1c0,1-0.8,1.8-1.8,1.8l-44.3,0
		c-1,0-1.7-0.8-1.7-1.7V87.4c0-1,0.8-1.7,1.7-1.7h44.1c1,0,1.7,0.8,1.7,1.7v13.3c0,1.7,2.1,2.3,3.1,1h0c12.4-17,29.7-21.6,49.5-19.1
		c19.6,2.5,33.7,13.1,40.7,31.7c2.9,7.6,4,15.9,5.9,23.9c0,0.1,0,0.3,0,0.4v90.1C257.4,229.6,256.6,230.4,255.7,230.4z"/>
	<path class="st1" d="M35.6,228.4V87.5c0-1,0.8-1.7,1.7-1.7h44.1c1,0,1.7,0.8,1.7,1.7v140.9c0,1-0.8,1.7-1.7,1.7H37.3
		C36.4,230.1,35.6,229.4,35.6,228.4z"/>
</g>
<circle class="st1" cx="59.4" cy="44.4" r="26.5"/>
</svg>
