<?xml version="1.0" encoding="utf-8"?>
<!-- Generator: Adobe Illustrator 19.2.1, SVG Export Plug-In . SVG Version: 6.00 Build 0)  -->
<svg version="1.1" id="Layer_1" xmlns="http://www.w3.org/2000/svg" xmlns:xlink="http://www.w3.org/1999/xlink" x="0px" y="0px"
	 viewBox="0 0 150.5 150.5" style="enable-background:new 0 0 150.5 150.5;" xml:space="preserve">
<style type="text/css">
	.st0{fill:#BCDCA5;}
	.st1{fill:#373334;}
</style>
<path class="st0" d="M142.7,150.5H7.8c-4.3,0-7.8-3.5-7.8-7.8V7.8C0,3.5,3.5,0,7.8,0h134.9c4.3,0,7.8,3.5,7.8,7.8v134.9
	C150.5,147,147,150.5,142.7,150.5z"/>
<g>
	<path class="st1" d="M12.9,122.9c0-0.3,2.4,0,3.5-0.1c20-0.9,30.2-9.4,31.6-11.2c-6.3-1.2-12.2-3.1-16.6-7.8c-1-1.1-2.1-2.2-3-3.4
		c-3.9-5.3-3.6-6.1,2.6-6.8c1.1-0.1,2.3-0.4,4.1-0.8c-4.1-2.1-7.8-3.4-10.8-6.2c-4.5-4.3-7.3-9.4-8.5-15.5c-0.6-3-0.4-4.7,3.2-3
		c1.8,0.9,3.7,1.4,6.1,0.4C20.5,63.7,17,58.5,16,51.8c-0.7-4.5,0.1-8.6,1.3-12.7c1.1-3.7,2.5-3.5,4.9-0.8
		c10.5,11.3,23.2,18.7,38.2,22.3c1,0.2,1.9,0.5,2.9,0.6c2.8,0.4,5.9,1.4,8.3,0.7c2.8-0.7,1.3-7,1.7-9.6c1.7-10.3,5.7-16,15.5-20.1
		c9.6-4,18.7-2.5,26.7,3.9c2.3,1.8,4.2,2.2,6.8,1.2c3.7-1.5,7.4-2.8,11.7-4.3c-1.5,5.6-4.9,9.1-9.5,12.9c4.5,0.3,7.8-1.9,11.5-2.2
		c0.2,0.2,0.3,0.3,0.5,0.5c-1.8,3.9-5.1,6.6-8.2,9.2c-2.3,1.9-3,3.9-3,6.8c-0.5,43.6-36.9,77.1-80.2,73.7
		c-10.5-0.8-18.5-2.7-29.3-9.2C14.8,124.1,13.8,123.5,12.9,122.9C12.9,122.9,12.9,123.2,12.9,122.9z"/>
	<path class="st1" d="M136,43.7c0.3-0.4,0.7-0.7,1.1-0.1c0,0.1-0.4,0.4-0.6,0.6C136.4,44.1,136.2,43.9,136,43.7z"/>
</g>
</svg>
